<?xml version="1.0" encoding="utf-8"?>
<!-- Generator: Adobe Illustrator 22.0.1, SVG Export Plug-In . SVG Version: 6.00 Build 0)  -->
<svg version="1.1" id="Thunderstorm_Night" xmlns="http://www.w3.org/2000/svg" xmlns:xlink="http://www.w3.org/1999/xlink" x="0px"
	 y="0px" viewBox="0 0 512 512" style="enable-background:new 0 0 512 512;" xml:space="preserve">
<style type="text/css">
	.st0{fill:none;}
	.st1{fill:#FF8C00;}
	.st2{fill:#9C9E9F;}
	.st3{fill:#D9DADB;}
	.st4{fill:#ECEDED;}
	.st5{fill:#C6C7C8;}
	.st6{fill:#FFBE00;}
	.st7{fill:url(#SVGID_1_);}
	.st8{fill:#3C64FF;}
</style>
<pattern  y="512" width="91.2" height="91.2" patternUnits="userSpaceOnUse" id="Nueva_muestra_de_motivo_1" viewBox="0 -91.2 91.2 91.2" style="overflow:visible;">
	<g>
		<rect y="-91.2" class="st0" width="91.2" height="91.2"/>
		<rect y="-91.2" class="st0" width="91.2" height="91.2"/>
		<rect y="-91.2" class="st1" width="91.2" height="91.2"/>
	</g>
</pattern>
<title>Icon_Thunderstorm_Night</title>
<g>
	<path class="st2" d="M195.6,81c0,53.5-43.5,96.9-97,96.9c-8.2,0-16.4-1.1-24.3-3.1c13.5,51.8,66.4,82.7,118.2,69.2
		c51.8-13.5,82.7-66.4,69.2-118.2c-8.9-33.9-35.3-60.4-69.2-69.2C194.5,64.5,195.6,72.7,195.6,81z"/>
	<path class="st3" d="M248,103.2c-2.1-3.5-4.4-6.9-6.9-10.2l6.3-4.9c2.8,3.5,5.3,7.2,7.5,11L248,103.2z"/>
	<path class="st3" d="M168,251.1c-45.9,0-86-31-97.6-75.4c-0.6-2.1,0.7-4.3,2.9-4.9c0.7-0.2,1.4-0.2,2,0
		c49.7,12.9,100.4-16.9,113.3-66.6c4-15.3,4-31.4,0-46.7c-0.6-2.1,0.7-4.3,2.9-4.9c0.7-0.2,1.3-0.2,2,0
		c18.4,4.8,35.1,14.7,48.1,28.6c1.5,1.6,1.4,4.1-0.2,5.7c-1.6,1.5-4.1,1.4-5.7-0.2c-10.4-11.1-23.4-19.5-37.8-24.4
		c10.3,54.8-25.8,107.5-80.6,117.8c-12.3,2.3-24.9,2.3-37.3,0c16.4,48.6,69,74.8,117.6,58.4s74.8-69,58.4-117.6
		c-1.2-3.4-2.5-6.8-4-10c-0.9-2-0.1-4.4,1.9-5.3c2-0.9,4.4-0.1,5.3,1.9l0,0c23.6,50.5,1.8,110.5-48.7,134.1
		C197.3,247.8,182.7,251.1,168,251.1z"/>
	<path class="st4" d="M198.9,327.1c-25.5-1.1-45.3-22.6-44.2-48.1c1-24.7,21.3-44.2,46.1-44.2c0.4,0-0.6-7.2-0.6-11.1
		c0-20.4,16.5-36.9,36.9-36.9c6.9,0,13.7,1.9,19.6,5.6c6.4-33.4,38.7-55.2,72.1-48.8c22.4,4.3,40.6,20.7,47.2,42.5
		c38.8,5.1,66.1,40.6,61,79.4c-4.6,35.2-34.6,61.5-70.1,61.6L198.9,327.1z"/>
	<path class="st5" d="M419.5,215.1l6.3-4.9c-3.8-4.8-8.1-9.1-13-12.9l-4.9,6.3C412.2,206.9,416.1,210.8,419.5,215.1z"/>
	<path class="st5" d="M432.1,219.6c-1.1-1.9-3.5-2.6-5.5-1.5s-2.6,3.5-1.5,5.5c18.1,32.2,6.7,72.9-25.5,91
		c-10,5.6-21.2,8.6-32.7,8.6H200.8c-23.3,0-42.2-18.9-42.2-42.2s18.9-42.2,42.2-42.2c11.2,0,21.9,4.4,29.8,12.3
		c1.5,1.6,4.1,1.7,5.7,0.1s1.7-4.1,0.1-5.7c0,0-0.1-0.1-0.1-0.1c-8.4-8.5-19.7-13.6-31.6-14.5c0-0.2-0.1-0.5-0.1-0.7
		c-0.2-2.1-0.4-4.8-0.4-6.5c0-18.2,14.7-32.9,32.9-32.9c6.2,0,12.2,1.7,17.5,5l5,3.1l1.1-5.7c6-31.2,36.2-51.7,67.4-45.7
		c21,4,38,19.4,44.2,39.8l0.8,2.5l2.6,0.3c8.3,1.1,16.3,3.7,23.6,7.7c1.9,1.1,4.3,0.5,5.5-1.4c1.1-1.9,0.5-4.3-1.4-5.5
		c-0.1-0.1-0.2-0.1-0.3-0.2c-7.5-4.1-15.6-6.9-24-8.3c-11.9-34.2-49.3-52.3-83.5-40.4c-20.3,7.1-35.9,23.6-41.7,44.3
		c-20.6-9.3-44.8-0.2-54.2,20.4c-2.4,5.3-3.6,11.1-3.6,16.9c0,2.1,0.2,4.8,0.4,7.2l0,0c-27.6,2.3-48.2,26.5-45.9,54.1
		c2.1,26,23.9,46.1,50,46H367c41.3,0,74.8-33.5,74.8-74.8C441.8,243.5,438.5,230.8,432.1,219.6L432.1,219.6z"/>
	<path class="st6" d="M146.9,120h-6c0-16.4-4.8-21.2-21.2-21.2v-6c16.4,0,21.2-4.8,21.2-21.2h6c0,16.4,4.8,21.2,21.2,21.2v6
		C151.6,98.8,146.9,103.5,146.9,120z M136.3,95.8c3.3,1.6,6,4.3,7.6,7.6c1.6-3.3,4.3-6,7.6-7.6c-3.3-1.6-6-4.3-7.6-7.6
		C142.2,91.5,139.6,94.1,136.3,95.8z"/>
	<path class="st6" d="M139.8,140.6c-3.7-1.6-6.6-4.5-8.2-8.2l-0.8-1.7l-0.8,1.7c-1.6,3.7-4.5,6.6-8.2,8.2l-1.7,0.8l1.7,0.8
		c3.7,1.6,6.6,4.5,8.2,8.2l0.8,1.7l0.8-1.7c1.6-3.7,4.5-6.6,8.2-8.2l1.7-0.8L139.8,140.6z"/>
	<path class="st3" d="M224.6,163.5c-11.6,0-21.1-9.5-21.1-21.1c0-11.6,9.5-21.1,21.1-21.1c11.6,0,21.1,9.5,21.1,21.1
		c0,5.6-2.2,10.9-6.2,14.9C235.6,161.3,230.2,163.6,224.6,163.5z M224.6,129.3c-7.2,0-13.1,5.9-13.1,13.1c0,7.2,5.9,13.1,13.1,13.1
		c7.2,0,13.1-5.9,13.1-13.1c0-3.5-1.4-6.8-3.8-9.3C231.5,130.7,228.1,129.3,224.6,129.3L224.6,129.3z"/>
	<circle class="st3" cx="152.2" cy="206.5" r="10.7"/>
	<polygon class="st6" points="265,429.9 273.7,403.1 263.1,392.4 289.8,365.6 282.9,390.8 293.5,401.4 	"/>
	
		<pattern  id="SVGID_1_" xlink:href="#Nueva_muestra_de_motivo_1" patternTransform="matrix(0.7599 0 0 -0.7599 -1750.6829 -14268.2871)">
	</pattern>
	<path class="st7" d="M265,433.4c-1.9,0-3.5-1.6-3.5-3.5c0-0.4,0.1-0.7,0.2-1.1l8-24.8l-9.1-9.2c-1.4-1.4-1.4-3.6,0-4.9l26.7-26.7
		c1.4-1.4,3.6-1.4,4.9,0c0.9,0.9,1.2,2.2,0.9,3.4l-6.4,23.1l9.1,9.2c1.4,1.4,1.4,3.6,0,4.9l-28.4,28.5
		C266.8,433,265.9,433.4,265,433.4z M268,392.4l8.2,8.2c0.9,0.9,1.2,2.3,0.9,3.5l-4.2,13l15.7-15.8l-8.1-8.2
		c-0.9-0.9-1.2-2.2-0.9-3.4l3.4-12.4L268,392.4z"/>
	<path class="st8" d="M180,400.4c-2.2,0-4-1.8-4-4c0-1.1,0.4-2.1,1.2-2.8l12.8-12.9c1.6-1.6,4.1-1.6,5.7,0s1.6,4.1,0,5.7l-12.9,12.9
		C182.1,400,181.1,400.4,180,400.4z"/>
	
		<rect x="201.1" y="364.7" transform="matrix(0.7071 -0.7071 0.7071 0.7071 -199.8546 254.8823)" class="st8" width="13.3" height="8"/>
	<path class="st8" d="M343,435c-2.2,0-4-1.8-4-4c0-1.1,0.4-2.1,1.2-2.8l12.8-12.8c1.6-1.6,4.1-1.6,5.7,0s1.6,4.1,0,5.7l-12.9,12.9
		C345.1,434.6,344.1,435,343,435z"/>
	
		<rect x="321.4" y="442" transform="matrix(0.7071 -0.7071 0.7071 0.7071 -219.2462 362.6027)" class="st8" width="13.3" height="8"/>
	<path class="st8" d="M337.6,400.9c-2.2,0-4-1.8-4-4c0-1.1,0.4-2.1,1.2-2.8l12.9-12.9c1.6-1.6,4.1-1.6,5.7,0s1.6,4.1,0,5.7l0,0
		l-12.9,12.9C339.6,400.5,338.6,400.9,337.6,400.9z"/>
	
		<rect x="358.6" y="365.2" transform="matrix(0.7071 -0.7071 0.7071 0.7071 -154.0443 366.436)" class="st8" width="13.3" height="8"/>
	<path class="st8" d="M289.9,448.6c-2.2,0-4-1.8-4-4c0-1.1,0.4-2.1,1.2-2.8l12.9-12.9c1.6-1.6,4.1-1.6,5.7,0s1.6,4.1,0,5.7l0,0
		l-12.9,12.9C291.9,448.2,290.9,448.6,289.9,448.6z"/>
	
		<rect x="310.9" y="412.9" transform="matrix(0.7071 -0.7071 0.7071 0.7071 -201.777 346.6891)" class="st8" width="13.3" height="8"/>
	<path class="st8" d="M316.8,382.2c-2.2,0-4-1.8-4-4c0-1.1,0.4-2.1,1.2-2.8l12.9-12.9c1.6-1.5,4.1-1.5,5.7,0.1c1.5,1.5,1.5,4,0,5.5
		L319.6,381C318.8,381.8,317.8,382.2,316.8,382.2z"/>
	<path class="st8" d="M237.6,382.3c-2.2,0-4-1.8-4-4c0-1.1,0.4-2.1,1.2-2.8l12.9-12.9c1.6-1.6,4.1-1.6,5.7,0s1.6,4.1,0,5.7
		l-12.9,12.9C239.7,381.8,238.7,382.3,237.6,382.3z"/>
	
		<rect x="216.1" y="389.2" transform="matrix(0.7071 -0.7071 0.7071 0.7071 -212.7863 272.6633)" class="st8" width="13.3" height="8"/>
	<path class="st8" d="M192,427.9c-2.2,0-4-1.8-4-4c0-1.1,0.4-2.1,1.2-2.8l12.8-12.9c1.6-1.6,4.1-1.6,5.7,0s1.6,4.1,0,5.7l-12.9,12.9
		C194.1,427.5,193.1,427.9,192,427.9z"/>
	
		<rect x="170.4" y="434.8" transform="matrix(0.7071 -0.7071 0.7071 0.7071 -258.3984 253.7554)" class="st8" width="13.3" height="8"/>
	<path class="st8" d="M209.7,449.7c-2.2,0-4-1.8-4-4c0-1.1,0.4-2.1,1.2-2.8l12.9-12.9c1.6-1.6,4.1-1.6,5.7,0s1.6,4.1,0,5.7
		l-12.9,12.9C211.8,449.3,210.8,449.7,209.7,449.7z"/>
	
		<rect x="230.8" y="414" transform="matrix(0.7071 -0.7071 0.7071 0.7071 -225.9956 290.3309)" class="st8" width="13.3" height="8"/>
	
		<rect x="237.5" y="446.8" transform="matrix(0.7071 -0.7071 0.7071 0.7071 -247.2012 304.708)" class="st8" width="13.3" height="8"/>
</g>
</svg>
